<?xml version="1.0" encoding="iso-8859-1"?>
<!-- Generator: Adobe Illustrator 19.0.0, SVG Export Plug-In . SVG Version: 6.00 Build 0)  -->
<svg version="1.1" id="Capa_1" xmlns="http://www.w3.org/2000/svg" xmlns:xlink="http://www.w3.org/1999/xlink" x="0px" y="0px"
	 viewBox="0 0 427.67 427.67" style="enable-background:new 0 0 427.67 427.67;" xml:space="preserve">
<linearGradient id="SVGID_1_" gradientUnits="userSpaceOnUse" x1="213.8351" y1="459.8353" x2="213.8351" y2="-22.7048" gradientTransform="matrix(1 0 0 -1 0 429.6705)">
	<stop  offset="0" style="stop-color:#00EFD1"/>
	<stop  offset="1" style="stop-color:#00ACEA"/>
</linearGradient>
<path style="fill:url(#SVGID_1_);" d="M327.412,313.248c31.154-34.315,48.401-79.009,48.373-125.356
	c0-103.312-84.288-187.363-187.892-187.363S0,84.58,0,187.892s84.288,187.363,187.893,187.363
	c46.259,0.045,90.9-17.017,125.336-47.905l97.388,96.88c3.915,3.895,10.247,3.879,14.142-0.036s3.879-10.247-0.036-14.142
	L327.412,313.248z M20,187.892C20,95.608,95.316,20.529,187.893,20.529s167.892,75.079,167.892,167.363
	s-75.316,167.363-167.892,167.363S20,280.176,20,187.892L20,187.892z"/>
<g>
	
		<linearGradient id="SVGID_2_" gradientUnits="userSpaceOnUse" x1="156.0436" y1="459.8353" x2="156.0436" y2="-22.7048" gradientTransform="matrix(1 0 0 -1 0 429.6705)">
		<stop  offset="0" style="stop-color:#00EFD1"/>
		<stop  offset="1" style="stop-color:#00ACEA"/>
	</linearGradient>
	<path style="fill:url(#SVGID_2_);" d="M200.623,231.593l-22.57,22.476c-6.978,6.982-16.472,10.862-26.343,10.766h-0.044
		c-20.426,0.134-37.094-16.315-37.229-36.742c-0.066-9.958,3.887-19.521,10.964-26.527l22.675-22.545
		c3.909-3.896,3.92-10.223,0.024-14.133c-3.896-3.909-10.223-3.92-14.133-0.023l0,0l-22.675,22.57
		c-22.349,22.118-22.536,58.167-0.418,80.516c10.773,10.885,25.476,16.971,40.79,16.884h0.069
		c15.188,0.108,29.782-5.894,40.5-16.657l22.57-22.575c3.869-3.915,3.832-10.224-0.083-14.093
		c-3.915-3.869-10.224-3.832-14.093,0.083l0,0L200.623,231.593z"/>
	
		<linearGradient id="SVGID_3_" gradientUnits="userSpaceOnUse" x1="219.6217" y1="459.8353" x2="219.6217" y2="-22.7048" gradientTransform="matrix(1 0 0 -1 0 429.6705)">
		<stop  offset="0" style="stop-color:#00EFD1"/>
		<stop  offset="1" style="stop-color:#00ACEA"/>
	</linearGradient>
	<path style="fill:url(#SVGID_3_);" d="M224.006,98.835h-0.071c-15.188-0.108-29.782,5.894-40.5,16.657l-22.57,22.575
		c-3.876,3.915-3.844,10.23,0.07,14.105s10.23,3.844,14.105-0.07l22.57-22.488c6.978-6.987,16.475-10.871,26.349-10.779h0.044
		c20.426-0.134,37.094,16.316,37.229,36.742c0.065,9.958-3.887,19.521-10.964,26.527l-22.675,22.545
		c-3.934,3.87-3.985,10.197-0.114,14.13s10.197,3.985,14.13,0.114c0.031-0.031,0.062-0.062,0.093-0.093l22.675-22.566
		c22.35-22.117,22.539-58.164,0.422-80.514C254.026,104.834,239.322,98.748,224.006,98.835L224.006,98.835z"/>
	
		<linearGradient id="SVGID_4_" gradientUnits="userSpaceOnUse" x1="187.8349" y1="459.8353" x2="187.8349" y2="-22.7048" gradientTransform="matrix(1 0 0 -1 0 429.6705)">
		<stop  offset="0" style="stop-color:#00EFD1"/>
		<stop  offset="1" style="stop-color:#00ACEA"/>
	</linearGradient>
	<path style="fill:url(#SVGID_4_);" d="M146.504,233.166c3.905,3.905,10.237,3.906,14.142,0.001c0,0,0.001-0.001,0.001-0.001
		l68.519-68.519c3.905-3.905,3.905-10.238,0-14.143s-10.238-3.905-14.143,0l0,0l-68.519,68.519
		C142.598,222.928,142.598,229.26,146.504,233.166C146.503,233.166,146.504,233.166,146.504,233.166L146.504,233.166z"/>
</g>
<g>
</g>
<g>
</g>
<g>
</g>
<g>
</g>
<g>
</g>
<g>
</g>
<g>
</g>
<g>
</g>
<g>
</g>
<g>
</g>
<g>
</g>
<g>
</g>
<g>
</g>
<g>
</g>
<g>
</g>
</svg>
